# xmcd CD database file
# Copyright (C) 1993-1996 Ti Kan
#
# Track frame offsets:
#  150
#  20077
#  37923
#  65598
#  81220
#  107274
#  120856
#  144812
#  159822
#  173500
#  190914
#  218592
#
# Disc length: 3190 seconds
#
# Revision: 1
# Processed by: cddbd v1.5.2PL0 Copyright (c) Steve Scherf et al.
# Submitted via: Advanced CD Ripper Pro 2.0
#
DISCID=860c740c
DTITLE=MUAMMER ÖZTAÞ - AH BABAM SAÐ OLSAYDI
DYEAR=2007
DGENRE=
TTITLE0=AH BABAM SAÐ OLSAYDI
TTITLE1=ARAMAZ BENÝ
TTITLE2=BÝR YAVRU YÝTÝRDÝM
TTITLE3=SON GÝDÝÞÝM
TTITLE4=YALANCI GELÝN
TTITLE5=VARSIN DESÝNLER
TTITLE6=NAZIM BEY
TTITLE7=CAFÝYEM
TTITLE8=DELÝ AVRAT
TTITLE9=TEPECÝÐÝN HELÝÐÝ
TTITLE10=OÐULA NASÝHAT
TTITLE11=AYÞE
EXTD=
EXTT0=
EXTT1=
EXTT2=
EXTT3=
EXTT4=
EXTT5=
EXTT6=
EXTT7=
EXTT8=
EXTT9=
EXTT10=
EXTT11=
PLAYORDER=
